<?xml version="1.0" encoding="UTF-8"?>
<svg xmlns="http://www.w3.org/2000/svg" xmlns:xlink="http://www.w3.org/1999/xlink" width="4000" height="1500" viewBox="0 0 4000 1500">
<rect x="-400" y="-150" width="4800" height="1800" fill="rgb(100%, 100%, 100%)" fill-opacity="1"/>
<path fill="none" stroke-width="48.59" stroke-linecap="round" stroke-linejoin="round" stroke="rgb(0%, 0%, 0%)" stroke-opacity="1" stroke-miterlimit="10" d="M 37970 14188.59375 C 38014.6875 13930.507812 37915.78125 13585.898438 37798.203125 13350.703125 C 37711.484375 13177.304688 37658.984375 12972.890625 37544.414062 12820 C 36409.414062 11306.796875 34248.007812 11458.984375 33010.507812 10108.90625 " transform="matrix(0.1, 0, 0, -0.1, 0, 1500)"/>
<path fill-rule="evenodd" fill="rgb(100%, 76.171875%, 86.326599%)" fill-opacity="1" d="M 3309.078125 480.769531 C 3309.359375 486.21875 3307.019531 485.441406 3307.070312 494.011719 C 3307.269531 526.398438 3353.570312 558.496094 3343.488281 592.089844 C 3337.199219 613.058594 3306.199219 630.648438 3301.730469 599.371094 C 3300.230469 588.816406 3305.011719 578.519531 3303.679688 567.8125 C 3301.480469 550.242188 3289.160156 537.664062 3291.050781 518.773438 C 3292.269531 506.589844 3305.179688 492.46875 3309.078125 480.769531 "/>
<path fill-rule="evenodd" fill="rgb(100%, 76.171875%, 86.326599%)" fill-opacity="1" d="M 3307.019531 480.769531 C 3303.910156 493.210938 3291.730469 514.132812 3286.949219 526.097656 C 3283.429688 534.890625 3285.921875 544.660156 3285 553.773438 C 3282.980469 574.015625 3275.851562 602.777344 3255.390625 613.007812 C 3249.078125 616.160156 3240.898438 618.847656 3235.480469 612.523438 C 3218.648438 592.890625 3244.011719 575.953125 3245.679688 557.660156 C 3246.53125 548.273438 3243.589844 540.460938 3248.101562 531.441406 C 3263.511719 500.636719 3294.578125 500.988281 3307.019531 480.769531 "/>
<path fill-rule="evenodd" fill="rgb(97.264099%, 38.792419%, 53.318787%)" fill-opacity="1" d="M 3307.019531 479.21875 C 3299 492.398438 3295.359375 497.101562 3286.460938 501.824219 C 3262.070312 514.765625 3257.648438 513.101562 3235 518.332031 C 3220.859375 521.59375 3207.558594 526.097656 3192.75 526.097656 C 3182.660156 526.097656 3154.359375 517.964844 3159.738281 501.824219 C 3161.039062 497.921875 3166.109375 494.679688 3168.960938 492.109375 C 3189.5 473.628906 3211.789062 493.578125 3233.050781 495.511719 C 3244.398438 496.539062 3257.300781 493.570312 3268.980469 493.570312 C 3282.738281 493.570312 3290.441406 489.289062 3307.019531 479.21875 "/>
<path fill-rule="evenodd" fill="rgb(100%, 76.171875%, 86.326599%)" fill-opacity="1" d="M 3311.691406 475.328125 C 3313.519531 476.328125 3299.640625 482.808594 3298.601562 483.371094 C 3290.671875 487.601562 3281.609375 488.679688 3272.871094 489.199219 C 3244.890625 490.839844 3228.929688 479.28125 3211.199219 459.578125 C 3206.089844 453.898438 3198.171875 447.449219 3200.359375 438.691406 C 3201.789062 432.980469 3211.320312 410.558594 3219.941406 412 C 3227.78125 413.308594 3246.011719 436.558594 3250.53125 442.589844 C 3262.648438 458.738281 3291.03125 475.328125 3311.691406 475.328125 "/>
<path fill-rule="evenodd" fill="rgb(97.264099%, 38.792419%, 53.318787%)" fill-opacity="1" d="M 3313.238281 475.328125 C 3310.128906 477.660156 3309.261719 482.601562 3309.078125 483.878906 C 3308.058594 491.039062 3310.691406 504.160156 3314.800781 510.316406 C 3318.96875 516.570312 3329.601562 529.804688 3336.960938 531.441406 C 3342.351562 532.640625 3346.890625 532.4375 3351.519531 536.296875 C 3365.929688 548.296875 3373.039062 564.636719 3392.789062 570.28125 C 3408.519531 574.777344 3426.378906 558.671875 3414.640625 543.578125 C 3400.011719 524.769531 3370.089844 524.105469 3351.039062 512.988281 C 3341.019531 507.144531 3324.25 495.480469 3319.480469 484.339844 C 3317.898438 480.660156 3315.578125 478.441406 3313.238281 475.328125 "/>
<path fill-rule="evenodd" fill="rgb(26.292419%, 29.80957%, 41.601562%)" fill-opacity="1" d="M 3472.960938 383.589844 C 3464.070312 388.5 3452.96875 391.800781 3447.710938 395.039062 C 3430.050781 405.898438 3413.878906 428.738281 3404.488281 446.671875 C 3399.148438 456.878906 3390.78125 475.050781 3394.390625 487.078125 C 3395.878906 492.039062 3399.960938 497.878906 3403.371094 501.671875 C 3404.5 502.925781 3409.539062 504.691406 3409.539062 503.914062 C 3409.539062 494.089844 3413.808594 483.589844 3419.078125 475.289062 C 3434.351562 451.300781 3463.410156 440.519531 3472.960938 411.871094 C 3474.449219 407.398438 3482.28125 383.589844 3472.960938 383.589844 "/>
<path fill-rule="evenodd" fill="rgb(26.292419%, 29.80957%, 41.601562%)" fill-opacity="1" d="M 3467.308594 381.011719 C 3474.679688 381.011719 3445.089844 395.871094 3443.21875 396.71875 C 3433.289062 401.230469 3421.53125 402.890625 3410.671875 402.890625 C 3388.550781 402.890625 3372.070312 397.78125 3349.78125 403.03125 C 3346.050781 403.898438 3317.53125 414.128906 3316.378906 413.558594 C 3315.449219 413.089844 3323.011719 400.800781 3323.109375 400.648438 C 3330.011719 389.941406 3346.761719 384.320312 3358.46875 381.570312 C 3374.769531 377.730469 3395.230469 376 3411.789062 378.761719 C 3422.570312 380.558594 3456.160156 381.011719 3467.308594 381.011719 "/>
<path fill="none" stroke-width="48.59" stroke-linecap="round" stroke-linejoin="round" stroke="rgb(0%, 0%, 0%)" stroke-opacity="1" stroke-miterlimit="10" d="M 37289.609375 12509.21875 C 37190.898438 12431.40625 36935.898438 12292.617188 36891.09375 12270.195312 C 36612.304688 12130.78125 36330.117188 12011.601562 36016.71875 11984.296875 C 35135.3125 11907.695312 34295.507812 12424.609375 33415.898438 12146.914062 " transform="matrix(0.1, 0, 0, -0.1, 0, 1500)"/>
<path fill-rule="evenodd" fill="rgb(98.046875%, 55.664062%, 72.264099%)" fill-opacity="1" d="M 3346.671875 284.308594 C 3344.339844 289.808594 3340.171875 291.820312 3338.121094 297.289062 C 3330.019531 318.898438 3327.390625 347.148438 3309.078125 365.46875 C 3294.769531 379.78125 3256.050781 366.761719 3267.039062 347.53125 C 3271.789062 339.210938 3280.851562 332.851562 3286.660156 325.109375 C 3291.109375 319.171875 3290.691406 311.339844 3297.308594 306.609375 C 3305.859375 300.5 3340.449219 284.371094 3346.671875 284.308594 "/>
<path fill-rule="evenodd" fill="rgb(100%, 76.171875%, 86.326599%)" fill-opacity="1" d="M 3346.671875 282.519531 C 3345.460938 295.191406 3314.269531 289.238281 3305.71875 289.238281 C 3276.710938 289.238281 3274.800781 275.410156 3260.308594 254.480469 C 3256.480469 248.949219 3243.449219 240.039062 3246.859375 231.5 C 3254.949219 211.28125 3276.730469 220.859375 3289.460938 228.140625 C 3295.949219 231.851562 3303.179688 236.25 3308.519531 241.589844 C 3318.441406 251.511719 3335.660156 275.171875 3346.671875 282.519531 "/>
<path fill-rule="evenodd" fill="rgb(98.046875%, 55.664062%, 72.264099%)" fill-opacity="1" d="M 3346.671875 284.308594 C 3327.128906 277.648438 3314.601562 244.789062 3317.488281 223.089844 C 3318.808594 213.191406 3338.140625 178.609375 3344.949219 169.839844 C 3349.621094 163.839844 3369.808594 164.070312 3373.539062 171.53125 C 3377.761719 179.96875 3366.839844 192.761719 3364.011719 200.109375 C 3361.78125 205.910156 3362.160156 212.261719 3360.089844 218.050781 C 3350.351562 245.328125 3346.671875 256.960938 3346.671875 284.308594 "/>
<path fill-rule="evenodd" fill="rgb(65.429688%, 38.792419%, 72.264099%)" fill-opacity="1" d="M 3346.230469 284.308594 C 3344.339844 285.628906 3345.289062 289.96875 3344.949219 293.71875 C 3343.089844 314.179688 3344.140625 333.371094 3358.410156 349.210938 C 3374.058594 366.601562 3419.089844 362.398438 3404.929688 334.078125 C 3397.859375 319.941406 3381.949219 320.628906 3370.738281 312.78125 C 3361.238281 306.128906 3352.160156 294.210938 3346.230469 284.308594 "/>
<path fill-rule="evenodd" fill="rgb(65.429688%, 38.792419%, 72.264099%)" fill-opacity="1" d="M 3345.898438 283.410156 C 3345.609375 284.640625 3352.898438 281.898438 3355.230469 281.269531 C 3361.109375 279.671875 3370.398438 276.140625 3376.339844 275.21875 C 3396.121094 272.179688 3438.839844 227.300781 3418.378906 206.839844 C 3410.109375 198.570312 3387.070312 210.210938 3380.878906 216.398438 C 3360.589844 236.691406 3353.671875 272.410156 3345.898438 283.410156 "/>
<path fill-rule="evenodd" fill="rgb(38.401794%, 47.093201%, 61.914062%)" fill-opacity="1" d="M 3570.128906 300.589844 C 3574.96875 307.839844 3557.871094 322.710938 3552.089844 326.011719 C 3534.289062 336.179688 3515.839844 329.261719 3497.089844 332.738281 C 3489.679688 334.121094 3480.441406 338.390625 3473.519531 341.160156 C 3470.398438 342.410156 3448.5 355.871094 3448.269531 355.75 C 3447.550781 355.390625 3450.429688 348.230469 3450.511719 347.890625 C 3452.089844 341.589844 3460.640625 334.398438 3465.101562 329.941406 C 3468.929688 326.109375 3475.289062 323.378906 3480.261719 321.519531 C 3504.628906 312.378906 3521.109375 316.648438 3545.359375 314.21875 C 3549.710938 313.789062 3570.128906 305.800781 3570.128906 300.589844 "/>
<path fill-rule="evenodd" fill="rgb(26.292419%, 29.80957%, 41.601562%)" fill-opacity="1" d="M 3569.488281 297.941406 C 3571.359375 296.949219 3543.480469 301.660156 3537.5 297.378906 C 3526.46875 289.5 3510.28125 278.730469 3505.511719 265.390625 C 3502.410156 256.699219 3501.671875 246.960938 3494.851562 240.140625 C 3488.871094 234.160156 3481.820312 230.820312 3474.640625 227.230469 C 3474.320312 227.070312 3472.960938 226.808594 3472.960938 226.109375 C 3472.960938 224.988281 3475.261719 225.75 3476.328125 226.109375 C 3483.71875 228.570312 3490.921875 230.039062 3498.21875 232.839844 C 3506.390625 235.988281 3515.558594 234.460938 3523.46875 237.328125 C 3536.710938 242.148438 3542.960938 261.128906 3550.410156 271.570312 C 3554.898438 277.851562 3560.648438 282.871094 3565 288.96875 C 3566.640625 291.25 3569.488281 299.199219 3569.488281 297.941406 "/>
<path fill="none" stroke-width="48.59" stroke-linecap="round" stroke-linejoin="round" stroke="rgb(0%, 0%, 0%)" stroke-opacity="1" stroke-miterlimit="10" d="M 35997.695312 11686.40625 C 35358.984375 11383.710938 35362.617188 10245.390625 35510.507812 9653.867188 C 35537.617188 9545.625 35624.296875 9451.328125 35673.398438 9353.085938 " transform="matrix(0.1, 0, 0, -0.1, 0, 1500)"/>
<path fill-rule="evenodd" fill="rgb(87.889099%, 34.910583%, 65.818787%)" fill-opacity="1" d="M 3566.308594 562.792969 C 3574.480469 576.402344 3580.871094 621.660156 3572.890625 636.472656 C 3567.890625 645.757812 3557.128906 650.359375 3550.570312 658.378906 C 3545.210938 664.929688 3540 686.585938 3528.25 679.867188 C 3524.488281 677.71875 3520.5 675.15625 3518.339844 671.191406 C 3511.398438 658.472656 3521.890625 642.148438 3531.558594 634.40625 C 3548.570312 620.796875 3564.371094 585.734375 3566.308594 562.792969 "/>
<path fill-rule="evenodd" fill="rgb(85.15625%, 46.702576%, 61.131287%)" fill-opacity="1" d="M 3564.371094 562.792969 C 3569.140625 563.683594 3557.921875 586.042969 3552.640625 593.074219 C 3542.03125 607.222656 3522.398438 605.917969 3507.589844 612.089844 C 3500.550781 615.019531 3494.730469 619.910156 3488.160156 623.660156 C 3483.738281 626.1875 3472.910156 631.976562 3468.738281 626.140625 C 3460.75 614.949219 3475.101562 596.9375 3483.210938 590.183594 C 3507.429688 569.996094 3548.660156 594.214844 3564.371094 562.792969 "/>
<path fill-rule="evenodd" fill="rgb(100%, 76.171875%, 86.326599%)" fill-opacity="1" d="M 3567.109375 562.792969 C 3577.03125 599.703125 3591.050781 624.832031 3630.339844 636.058594 C 3644.859375 640.210938 3677.238281 648.726562 3679.941406 624.488281 C 3681.980469 606.066406 3641.289062 614.535156 3630.75 612.914062 C 3620.371094 611.316406 3621.5 596.832031 3614.21875 591.011719 C 3601.78125 581.054688 3580.898438 575.625 3567.109375 562.792969 "/>
<path fill-rule="evenodd" fill="rgb(100%, 76.171875%, 86.326599%)" fill-opacity="1" d="M 3567.109375 562.792969 C 3571.359375 567.851562 3595.921875 573.214844 3601.820312 574.476562 C 3614.121094 577.113281 3646.929688 575.253906 3655.96875 566.210938 C 3658.691406 563.488281 3658.019531 557.683594 3660.101562 554.226562 C 3663.839844 547.984375 3672.050781 546.617188 3674.148438 538.933594 C 3680.238281 516.605469 3643.808594 524.707031 3634.46875 529.015625 C 3624.371094 533.675781 3619.289062 544.460938 3609.679688 549.265625 C 3599.5 554.355469 3571.859375 559.226562 3567.109375 562.792969 "/>
<path fill-rule="evenodd" fill="rgb(38.401794%, 47.093201%, 61.914062%)" fill-opacity="1" d="M 3523.078125 468.109375 C 3533.269531 459 3545.699219 436.359375 3545.191406 438.011719 C 3543.539062 443.378906 3540.199219 456.550781 3538.839844 461.988281 C 3531.558594 491.140625 3511.089844 503.953125 3487.308594 519.164062 C 3482.050781 522.535156 3476.921875 526.976562 3472.488281 531.402344 C 3471.339844 532.558594 3470.160156 534.09375 3469.199219 535.402344 C 3468.488281 536.367188 3467.308594 538.460938 3467.308594 538.460938 C 3467.308594 538.460938 3467.558594 535.3125 3467.789062 533.753906 C 3468.140625 531.25 3468.820312 528.910156 3469.429688 526.460938 C 3471.179688 519.492188 3474.101562 512.402344 3478.140625 506.460938 C 3489.621094 489.570312 3508.230469 481.371094 3523.078125 468.109375 "/>
<path fill-rule="evenodd" fill="rgb(26.292419%, 29.80957%, 41.601562%)" fill-opacity="1" d="M 3553.898438 441.050781 C 3551.308594 435.949219 3546.28125 427.628906 3546.269531 427.789062 C 3546.011719 431.910156 3545.191406 441.140625 3545.191406 445.289062 C 3545.191406 454.921875 3548.828125 463.910156 3555.308594 470.929688 C 3559.699219 475.691406 3566.03125 478 3571.308594 481.519531 C 3576.339844 484.871094 3581.089844 489.648438 3584.960938 494.230469 C 3587.210938 496.890625 3593.710938 505.988281 3592.960938 505.988281 C 3592.230469 505.988281 3593.941406 501.214844 3594.128906 499.871094 C 3594.851562 494.851562 3594.558594 490.171875 3593.429688 485.28125 C 3590.429688 472.289062 3580.769531 464.289062 3570.140625 457.050781 C 3564.058594 452.921875 3557.320312 447.789062 3553.898438 441.050781 "/>
<path fill="none" stroke-width="48.59" stroke-linecap="round" stroke-linejoin="round" stroke="rgb(0%, 0%, 0%)" stroke-opacity="1" stroke-miterlimit="10" d="M 37369.6875 12595.195312 C 37365.78125 12610.195312 37241.289062 12433.28125 37232.382812 12415.585938 C 37170.195312 12291.210938 37147.5 12181.210938 37116.015625 12044.492188 C 37022.304688 11638.59375 37037.617188 11313.515625 37225.117188 10938.398438 C 37244.414062 10899.804688 37253.28125 10844.6875 37283.398438 10814.609375 " transform="matrix(0.1, 0, 0, -0.1, 0, 1500)"/>
<path fill-rule="evenodd" fill="rgb(65.429688%, 38.792419%, 72.264099%)" fill-opacity="1" d="M 3726.859375 418.539062 C 3729.089844 418.609375 3737.101562 430.089844 3739.359375 431.96875 C 3748.710938 439.761719 3760.058594 449.511719 3761.53125 462.710938 C 3762.601562 472.289062 3755.128906 486.519531 3758.511719 494.960938 C 3763.03125 506.253906 3782.328125 526.398438 3771.609375 539.796875 C 3760.339844 553.882812 3734.78125 538.644531 3730.289062 525.1875 C 3726.039062 512.417969 3733.25 500.296875 3734.320312 487.398438 C 3735.421875 474.261719 3731.199219 462.789062 3729.789062 450.109375 C 3728.828125 441.511719 3726.859375 426.539062 3726.859375 418.539062 "/>
<path fill-rule="evenodd" fill="rgb(98.046875%, 55.664062%, 72.264099%)" fill-opacity="1" d="M 3726.859375 418.539062 C 3736.308594 422 3730.121094 446.300781 3726.859375 452.011719 C 3717.109375 469.070312 3702.109375 469.75 3685.960938 477.820312 C 3673.140625 484.230469 3647.230469 504.679688 3635.570312 481.351562 C 3615.160156 440.519531 3664.019531 446.191406 3689.480469 446.191406 C 3694.960938 446.191406 3700.488281 443.070312 3706.109375 442.558594 C 3714.691406 441.78125 3722.199219 431.789062 3726.859375 418.539062 "/>
<path fill-rule="evenodd" fill="rgb(100%, 76.171875%, 86.326599%)" fill-opacity="1" d="M 3729.140625 418.539062 C 3731.710938 420.269531 3731.410156 424.679688 3733.859375 427.128906 C 3738.609375 431.878906 3748.769531 434.328125 3753.46875 439.03125 C 3763.28125 448.839844 3767.5 464.421875 3779.671875 472.789062 C 3800.441406 487.058594 3853.148438 490.21875 3860.789062 459.691406 C 3861.988281 454.871094 3862.640625 449.78125 3860.28125 445.070312 C 3856.75 438 3850.339844 430.980469 3842.148438 429.960938 C 3828.621094 428.269531 3816.289062 437.46875 3802.851562 436.511719 C 3785.730469 435.289062 3762.011719 418.378906 3746.921875 420.890625 C 3741.710938 421.761719 3734.230469 416.839844 3729.140625 418.539062 "/>
<path fill-rule="evenodd" fill="rgb(98.046875%, 55.664062%, 72.264099%)" fill-opacity="1" d="M 3726.859375 418.179688 C 3732.371094 426.039062 3749.621094 419.921875 3758 418.878906 C 3779.96875 416.128906 3805.429688 408.300781 3813.929688 385.621094 C 3816.019531 380.039062 3814.828125 374.101562 3815.949219 368.488281 C 3816.941406 363.511719 3823.089844 351.671875 3817.960938 346.828125 C 3812.398438 341.570312 3794.488281 341.710938 3789.238281 347.828125 C 3786.890625 350.578125 3785.808594 355.601562 3784.710938 358.921875 C 3782.769531 364.730469 3775.738281 369.738281 3772.621094 375.039062 C 3763.398438 390.710938 3749.519531 418.179688 3726.859375 418.179688 "/>
<path fill-rule="evenodd" fill="rgb(26.292419%, 29.80957%, 41.601562%)" fill-opacity="1" d="M 3705.988281 329.941406 C 3711.308594 356.378906 3692.71875 386.890625 3665.578125 406.050781 C 3658.378906 411.128906 3650.140625 416.429688 3645.761719 424.308594 C 3643.820312 427.808594 3639.929688 434.808594 3639.929688 434.808594 C 3639.929688 434.808594 3639.121094 424.890625 3639.929688 420.039062 C 3641.488281 410.679688 3645.359375 396.320312 3651.980469 389.328125 C 3666 374.539062 3683.628906 366.179688 3696.28125 348.921875 C 3699.140625 345.019531 3703.539062 335.378906 3705.988281 329.941406 "/>
<path fill-rule="evenodd" fill="rgb(38.401794%, 47.093201%, 61.914062%)" fill-opacity="1" d="M 3713.769531 285.570312 C 3709.628906 284.53125 3711.390625 305.75 3711.050781 308.109375 C 3707.871094 330.371094 3723.539062 338.648438 3739.808594 348.140625 C 3744.460938 350.851562 3749.03125 354.539062 3751.46875 359.410156 C 3753.351562 363.171875 3754.941406 366.851562 3754.96875 366.789062 C 3757.230469 362.261719 3754.648438 351.390625 3753.800781 346.96875 C 3751.171875 333.289062 3746.039062 323.660156 3735.929688 314.328125 C 3723.03125 302.421875 3717.921875 286.609375 3713.769531 285.570312 "/>
<path fill="none" stroke-width="91.77" stroke-linecap="round" stroke-linejoin="round" stroke="rgb(0%, 0%, 0%)" stroke-opacity="1" stroke-miterlimit="10" d="M 28261.992188 11337.5 C 28203.984375 10975.3125 28172.617188 10584.609375 28061.71875 10229.804688 C 27974.492188 9950.820312 27836.289062 9697.539062 27731.015625 9426.71875 C 27532.109375 8915.117188 27437.5 8264.21875 27645.585938 7671.015625 " transform="matrix(0.1, 0, 0, -0.1, 0, 1500)"/>
<path fill-rule="evenodd" fill="rgb(62.693787%, 71.875%, 71.875%)" fill-opacity="1" d="M 2820.070312 405.878906 C 2821.960938 392.179688 2795.679688 326.910156 2785.378906 310.730469 C 2768.5 284.199219 2741.75 257.738281 2713.578125 243.648438 C 2701.710938 237.71875 2688.941406 233.789062 2678.621094 224.75 C 2676.269531 222.699219 2672.011719 218.140625 2672.011719 218.140625 C 2672.011719 218.140625 2674.171875 221.800781 2674.839844 223.808594 C 2679.160156 236.75 2676.511719 254.191406 2679.558594 268.210938 C 2685.5 295.519531 2709.75 333.039062 2728.691406 353.25 C 2740.21875 365.539062 2757.390625 387.050781 2774.039062 392.929688 C 2781.660156 395.621094 2818.179688 419.578125 2820.070312 405.878906 "/>
<path fill-rule="evenodd" fill="rgb(46.289062%, 55.664062%, 56.443787%)" fill-opacity="1" d="M 2815.558594 443.011719 C 2821.328125 391.148438 2936.519531 389.941406 2968.679688 378.761719 C 2988.519531 371.859375 3016.839844 351.359375 3037.648438 351.359375 C 3051.921875 351.359375 3027.480469 367.980469 3019.699219 374.980469 C 3014.601562 379.570312 3004.679688 387.191406 2998.910156 391.039062 C 2988.191406 398.191406 2976.210938 402.898438 2964.898438 408.988281 C 2946.910156 418.679688 2925.308594 425.28125 2905.371094 429.78125 C 2874.738281 436.699219 2847.238281 443.011719 2815.558594 443.011719 "/>
<path fill-rule="evenodd" fill="rgb(46.289062%, 55.664062%, 56.443787%)" fill-opacity="1" d="M 2815.558594 456.25 C 2816.308594 431.289062 2730.289062 394.199219 2693.738281 375.921875 C 2680.140625 369.121094 2665.058594 364.550781 2652.160156 357.03125 C 2648.191406 354.710938 2644.679688 352.160156 2641.769531 348.519531 C 2640.710938 347.199219 2639.878906 342.101562 2639.878906 343.800781 C 2639.878906 403.53125 2684.511719 452.121094 2742.871094 463.789062 C 2763.109375 467.839844 2795.191406 456.25 2815.558594 456.25 "/>
<path fill-rule="evenodd" fill="rgb(62.693787%, 71.875%, 71.875%)" fill-opacity="1" d="M 2824.121094 486.46875 C 2821.898438 485.511719 2803.429688 466.269531 2807.46875 465.03125 C 2822.320312 460.460938 2837.039062 456.449219 2852.46875 454.339844 C 2887.171875 449.609375 2924.988281 450.558594 2960.171875 450.558594 C 2974.421875 450.558594 2987.21875 447.609375 3000.800781 444.890625 C 3003.351562 444.390625 3008.359375 443.011719 3008.359375 443.011719 C 3008.359375 443.011719 2983.710938 468.339844 2969.621094 478.910156 C 2940.679688 500.617188 2909.578125 503.472656 2874.199219 503.472656 C 2852.578125 503.472656 2843.410156 494.730469 2824.121094 486.46875 "/>
<path fill-rule="evenodd" fill="rgb(62.693787%, 71.875%, 71.875%)" fill-opacity="1" d="M 2806.890625 482.679688 C 2762.148438 471.449219 2703.289062 470.660156 2658.640625 483.421875 C 2645.75 487.101562 2614.371094 505.183594 2614.371094 508.199219 C 2614.371094 508.710938 2647.558594 517.417969 2648.390625 517.644531 C 2688.089844 528.675781 2710.289062 526.484375 2749.480469 512.921875 C 2753.5 511.53125 2776.179688 498.640625 2791.800781 489.71875 C 2800.421875 484.808594 2806.890625 482.570312 2806.890625 482.679688 "/>
<path fill-rule="evenodd" fill="rgb(46.289062%, 55.664062%, 56.443787%)" fill-opacity="1" d="M 2802.339844 488.550781 C 2802.101562 488.53125 2843.199219 509.800781 2852.46875 515.757812 C 2884.121094 536.105469 2891.199219 572.683594 2891.199219 608.347656 C 2891.199219 610.042969 2890.070312 605.140625 2889.308594 603.625 C 2888.140625 601.28125 2884.628906 598 2882.699219 596.066406 C 2875.648438 589.015625 2863.679688 584.296875 2855.300781 579.058594 C 2830.371094 563.480469 2802.339844 520.222656 2802.339844 488.550781 "/>
<path fill-rule="evenodd" fill="rgb(46.289062%, 55.664062%, 56.443787%)" fill-opacity="1" d="M 2823.679688 386.070312 C 2817 376.839844 2819.089844 349.96875 2817.511719 338.128906 C 2809.078125 274.929688 2829.339844 205.03125 2853.410156 147.28125 C 2860.140625 131.128906 2869.589844 114.449219 2880.808594 100.980469 C 2886.800781 93.800781 2900.648438 81.140625 2900.648438 81.140625 C 2900.648438 81.140625 2900.648438 85.550781 2900.648438 87.761719 C 2900.648438 98.820312 2895.429688 109.71875 2894.039062 120.820312 C 2891.378906 142.089844 2890.171875 164.191406 2885.53125 185.070312 C 2879.398438 212.679688 2874.660156 240.609375 2868.53125 268.210938 C 2863.101562 292.628906 2859.359375 319.980469 2848.691406 342.859375 C 2846.648438 347.21875 2823.679688 385.671875 2823.679688 386.070312 "/>
<path fill-rule="evenodd" fill="rgb(46.289062%, 55.664062%, 56.443787%)" fill-opacity="1" d="M 2824.371094 400.460938 C 2822.320312 398.089844 2836.128906 375.558594 2837.351562 374.03125 C 2850.339844 357.800781 2863.039062 343.75 2878.921875 329.628906 C 2918.890625 294.101562 2969.628906 273.289062 3010.25 238.929688 C 3022.769531 228.328125 3050.828125 209.589844 3050.878906 209.640625 C 3056.101562 214.859375 3037.519531 261.449219 3035.761719 264.441406 C 3003.039062 319.808594 2958.589844 344.519531 2899.710938 367.421875 C 2882.480469 374.121094 2867.570312 382.820312 2849.628906 388.210938 C 2846.019531 389.289062 2826.421875 402.820312 2824.371094 400.460938 "/>
<path fill-rule="evenodd" fill="rgb(46.289062%, 55.664062%, 56.443787%)" fill-opacity="1" d="M 765.207031 1355.335938 C 733.117188 1353.71875 692.035156 1295.632812 675.925781 1271.46875 C 675.332031 1270.578125 670.742188 1260.421875 671.867188 1259.296875 C 679.414062 1251.75 716.472656 1263.359375 727.328125 1262 C 730.492188 1261.605469 736.800781 1260.648438 736.800781 1260.648438 C 736.800781 1260.648438 730.980469 1257.535156 728.683594 1255.238281 C 718.855469 1245.410156 678.8125 1184.714844 686.75 1176.78125 C 694.871094 1168.65625 727.105469 1184.027344 735.445312 1187.601562 C 737.863281 1188.636719 742.210938 1191.660156 742.210938 1191.660156 C 742.210938 1191.660156 737.019531 1186.695312 735.445312 1183.542969 C 725.699219 1164.054688 721.175781 1138.273438 716.507812 1117.261719 C 716.375 1116.664062 711.066406 1090.207031 712.449219 1090.207031 C 748.132812 1090.207031 758.242188 1134.871094 767.910156 1101.027344 C 790.699219 1021.273438 871.757812 956.90625 935.644531 911.652344 C 953.300781 899.144531 970.863281 887.65625 988.402344 875.128906 C 995.363281 870.15625 1005.660156 864.632812 1011.398438 858.894531 C 1011.851562 858.445312 1012.46875 856.972656 1012.75 857.542969 C 1031.75 895.535156 1014.261719 991.644531 1008.691406 1033.394531 C 1006.148438 1052.460938 999.972656 1069.972656 992.460938 1087.503906 C 990.632812 1091.769531 985.695312 1099.675781 985.695312 1099.675781 C 985.695312 1099.675781 992.480469 1094.257812 996.515625 1092.914062 C 1007.089844 1089.390625 1069.230469 1064.175781 1073.621094 1068.566406 C 1076.589844 1071.535156 1042.460938 1134.226562 1028.980469 1151.078125 C 1026.589844 1154.066406 1020.871094 1159.195312 1020.871094 1159.195312 C 1020.871094 1159.195312 1029.039062 1159.863281 1033.039062 1159.195312 C 1047.710938 1156.75 1094.121094 1149.222656 1099.320312 1170.015625 C 1102.070312 1180.996094 1031.699219 1233.589844 1023.570312 1237.652344 C 1019.960938 1239.457031 1012.75 1243.0625 1012.75 1243.0625 C 1012.75 1243.0625 1018.160156 1243.0625 1020.871094 1243.0625 C 1036.140625 1243.0625 1060.011719 1268.929688 1051.980469 1284.996094 C 1027.761719 1333.4375 900.472656 1362.640625 851.777344 1367.511719 C 831.691406 1369.519531 812.765625 1371.613281 792.261719 1367.511719 C 789.179688 1366.894531 756.738281 1355.335938 765.207031 1355.335938 "/>
<path fill="none" stroke-width="113.68" stroke-linecap="round" stroke-linejoin="round" stroke="rgb(100%, 100%, 100%)" stroke-opacity="1" stroke-miterlimit="10" d="M 7916.835938 1345.546875 C 7957.03125 1332.1875 8020.195312 1439.21875 8038.476562 1468.4375 C 8138.28125 1628.164062 8231.484375 1810.117188 8283.632812 1992.617188 C 8449.609375 2573.554688 8551.523438 3165.625 8697.890625 3751.171875 C 8754.21875 3976.367188 8851.171875 4188.789062 8917.734375 4410.625 C 8995.3125 4669.21875 9142.34375 4951.796875 9306.640625 5163.046875 C 9352.96875 5222.617188 9397.96875 5290.976562 9433.4375 5357.5 C 9441.796875 5373.164062 9484.179688 5484.53125 9484.179688 5475.859375 " transform="matrix(0.1, 0, 0, -0.1, 0, 1500)"/>
<path fill="none" stroke-width="113.68" stroke-linecap="round" stroke-linejoin="round" stroke="rgb(100%, 100%, 100%)" stroke-opacity="1" stroke-miterlimit="10" d="M 8298.632812 1974.101562 C 8277.617188 1979.335938 8339.257812 2030.703125 8342.8125 2034.882812 C 8442.34375 2151.015625 8577.734375 2195.976562 8714.804688 2254.726562 C 8948.671875 2354.921875 9191.953125 2414.84375 9425 2516.796875 C 9492.109375 2546.171875 9614.492188 2652.070312 9687.109375 2652.070312 " transform="matrix(0.1, 0, 0, -0.1, 0, 1500)"/>
<path fill="none" stroke-width="113.68" stroke-linecap="round" stroke-linejoin="round" stroke="rgb(100%, 100%, 100%)" stroke-opacity="1" stroke-miterlimit="10" d="M 8579.53125 3117.695312 C 8598.59375 3204.296875 8674.414062 3258.828125 8733.984375 3318.398438 C 9043.984375 3628.398438 9416.09375 3685.039062 9816.835938 3818.59375 " transform="matrix(0.1, 0, 0, -0.1, 0, 1500)"/>
<path fill="none" stroke-width="113.68" stroke-linecap="round" stroke-linejoin="round" stroke="rgb(100%, 100%, 100%)" stroke-opacity="1" stroke-miterlimit="10" d="M 8912.890625 4347.96875 C 8889.570312 4408.867188 9025.742188 4485.507812 9069.414062 4524.804688 C 9276.132812 4710.820312 9522.03125 4774.648438 9763.867188 4895.546875 " transform="matrix(0.1, 0, 0, -0.1, 0, 1500)"/>
<path fill="none" stroke-width="113.68" stroke-linecap="round" stroke-linejoin="round" stroke="rgb(100%, 100%, 100%)" stroke-opacity="1" stroke-miterlimit="10" d="M 8065.859375 4434.101562 C 8072.929688 4439.609375 8137.5 4391.054688 8139.609375 4389.453125 C 8208.125 4338.046875 8269.960938 4291.367188 8316.132812 4218.789062 C 8490.976562 3944.0625 8598.632812 3646.445312 8598.632812 3318.398438 " transform="matrix(0.1, 0, 0, -0.1, 0, 1500)"/>
<path fill="none" stroke-width="113.68" stroke-linecap="round" stroke-linejoin="round" stroke="rgb(100%, 100%, 100%)" stroke-opacity="1" stroke-miterlimit="10" d="M 7569.335938 3492.34375 C 7565.625 3431.445312 7599.84375 3361.289062 7609.960938 3300.742188 C 7625.546875 3207.226562 7621.796875 3111.5625 7662.929688 3024.140625 C 7730.742188 2880.039062 7834.179688 2770.9375 7933.632812 2653.398438 C 8092.539062 2465.625 8221.835938 2259.414062 8327.929688 2047.226562 " transform="matrix(0.1, 0, 0, -0.1, 0, 1500)"/>
<path fill="none" stroke-width="90.62" stroke-linecap="round" stroke-linejoin="round" stroke="rgb(0%, 0%, 0%)" stroke-opacity="1" stroke-miterlimit="10" d="M 6507.65625 8121.757812 C 7673.125 8222.5 8933.90625 9264.84375 9598.4375 10178.085938 C 9761.914062 10402.695312 9846.445312 10693.90625 9989.921875 10932.1875 C 10418.59375 11644.296875 10946.210938 12273.984375 11645.195312 12738.515625 " transform="matrix(0.1, 0, 0, -0.1, 0, 1500)"/>
<path fill-rule="evenodd" fill="rgb(38.792419%, 25.901794%, 26.708984%)" fill-opacity="1" d="M 1152.429688 232.359375 C 1189.640625 244.679688 1266.011719 196.941406 1274.109375 156.71875 C 1275.53125 149.671875 1274.109375 144.550781 1272 138.171875 C 1261.808594 107.460938 1228.390625 132.480469 1214.179688 146.640625 C 1206.03125 154.769531 1197.199219 162.609375 1189.878906 171.589844 C 1175.800781 188.859375 1164.660156 214.070312 1152.429688 232.359375 "/>
<path fill-rule="evenodd" fill="rgb(85.15625%, 46.702576%, 61.131287%)" fill-opacity="1" d="M 1095.808594 281.578125 C 1121.410156 257.609375 1140.949219 209.980469 1143.488281 175.078125 C 1144.960938 154.878906 1125.058594 142.308594 1109.269531 156.480469 C 1087.710938 175.828125 1092.761719 216.761719 1092.71875 242.800781 C 1092.71875 246.980469 1099.648438 277.75 1095.808594 281.578125 "/>
<path fill-rule="evenodd" fill="rgb(38.792419%, 25.901794%, 26.708984%)" fill-opacity="1" d="M 1050.789062 330.808594 C 1059.460938 328.710938 1065.300781 325.03125 1083.679688 318.191406 C 1112.988281 307.289062 1146.101562 313.25 1176.839844 307.148438 C 1187.238281 305.089844 1201.25 304.761719 1206.828125 293.640625 C 1220.78125 265.839844 1180.609375 253.449219 1160.5 257.890625 C 1123.308594 266.101562 1075.511719 302.648438 1050.789062 330.808594 "/>
<path fill-rule="evenodd" fill="rgb(38.792419%, 25.901794%, 26.708984%)" fill-opacity="1" d="M 1027.539062 363.628906 C 1031.941406 329.328125 999.917969 280.929688 1022.070312 244.128906 C 1044.210938 207.359375 1067.199219 219.941406 1070.578125 257.761719 C 1073.308594 288.320312 1046.808594 340.570312 1027.539062 363.628906 "/>
<path fill-rule="evenodd" fill="rgb(38.792419%, 25.901794%, 26.708984%)" fill-opacity="1" d="M 979.558594 451.308594 C 994.015625 439.730469 1025.359375 409.140625 1052.519531 406.160156 C 1078.269531 403.339844 1115.398438 409.730469 1135.320312 389.871094 C 1163.230469 362.050781 1116.5 343.238281 1092.570312 349.851562 C 1063.078125 357.988281 1024.378906 373.320312 1005.769531 397.441406 C 999.140625 406.03125 976.617188 438.25 979.558594 451.308594 "/>
<path fill-rule="evenodd" fill="rgb(85.15625%, 46.702576%, 61.131287%)" fill-opacity="1" d="M 965.023438 475.679688 C 959.289062 430.71875 924.996094 385.410156 932.019531 336.761719 C 936.023438 309.03125 979.019531 313.140625 989.101562 341.839844 C 1002.738281 380.660156 981.027344 440.910156 965.023438 475.679688 "/>
<path fill-rule="evenodd" fill="rgb(85.15625%, 46.702576%, 61.131287%)" fill-opacity="1" d="M 914.84375 543.757812 C 959.925781 498.089844 1025.058594 535.265625 1072.371094 497.53125 C 1100.769531 474.878906 1068.628906 447.730469 1042.460938 451.820312 C 1014.230469 456.230469 973.652344 478.929688 943.230469 504.648438 C 928.722656 516.910156 921.039062 523.355469 914.84375 543.757812 "/>
<path fill-rule="evenodd" fill="rgb(38.792419%, 25.901794%, 26.708984%)" fill-opacity="1" d="M 869.167969 582.839844 C 869.1875 568.339844 882.109375 535.007812 873.246094 510.085938 C 865.507812 488.308594 846.003906 451.761719 864.800781 430.859375 C 885.023438 408.378906 913.496094 435.320312 914.71875 456.628906 C 917.003906 496.519531 903.296875 558.660156 869.167969 582.839844 "/>
<path fill-rule="evenodd" fill="rgb(38.792419%, 25.901794%, 26.708984%)" fill-opacity="1" d="M 843.023438 600.199219 C 851.722656 613.261719 869.972656 587.796875 889.539062 592.175781 C 922.75 599.609375 975.03125 616.835938 1005.859375 594.488281 C 1037.859375 571.285156 998.421875 545.925781 972.386719 548.054688 C 935.351562 551.085938 874.277344 582.898438 843.023438 600.199219 "/>
<path fill-rule="evenodd" fill="rgb(44.309998%, 36.497498%, 40.405273%)" fill-opacity="1" d="M 429.308594 399.679688 C 391.710938 399.53125 350.304688 403.320312 321.835938 406.5 C 286.675781 410.441406 254.597656 416.261719 216.1875 442.078125 C 193.835938 457.101562 172.335938 498.191406 192.988281 522.875 C 215.894531 550.246094 246.929688 546.511719 274.351562 535.167969 C 345.417969 505.769531 394.417969 462.21875 429.308594 399.679688 "/>
<path fill-rule="evenodd" fill="rgb(44.309998%, 36.497498%, 40.405273%)" fill-opacity="1" d="M 437.515625 399.488281 C 435.085938 396.28125 427.789062 419.011719 426.691406 420.96875 C 419.449219 433.960938 411.898438 446.308594 408.6875 460.691406 C 399.789062 500.566406 392.726562 625.367188 477.933594 603.433594 C 569.636719 579.828125 518.355469 469.550781 475.613281 425.769531 C 467.410156 417.371094 446.332031 407.390625 437.515625 399.488281 "/>
<path fill-rule="evenodd" fill="rgb(44.309998%, 36.497498%, 40.405273%)" fill-opacity="1" d="M 437.515625 389.488281 C 448.203125 406.96875 478.660156 406.351562 497.320312 419.730469 C 517.199219 433.988281 540.207031 449.148438 563.796875 458.210938 C 611.335938 476.46875 689.613281 466.859375 696.773438 414.808594 C 704.53125 358.421875 611.226562 350.589844 583.957031 350.589844 C 562.3125 350.589844 534.011719 352.589844 512.554688 356.429688 C 495.816406 359.429688 458.140625 381.921875 437.515625 389.488281 "/>
<path fill-rule="evenodd" fill="rgb(44.309998%, 36.497498%, 40.405273%)" fill-opacity="1" d="M 429.308594 392.421875 C 399.8125 321.269531 258.984375 266.578125 189.875 314.230469 C 153.953125 338.988281 183.433594 375.859375 216.1875 388.699219 C 242.441406 399 272.714844 398.828125 300.664062 399.871094 C 342.195312 401.421875 389.085938 392.421875 429.308594 392.421875 "/>
<path fill-rule="evenodd" fill="rgb(44.309998%, 36.497498%, 40.405273%)" fill-opacity="1" d="M 437.515625 385.160156 C 382.996094 345.898438 328.574219 205.351562 447.464844 212.449219 C 545.09375 218.28125 503.800781 355.449219 437.515625 385.160156 "/>
<path fill="none" stroke-width="94.42" stroke-linecap="round" stroke-linejoin="round" stroke="rgb(0%, 0%, 0%)" stroke-opacity="1" stroke-miterlimit="10" d="M 18291.992188 8207.070312 C 19667.617188 8473.242188 21264.101562 9772.851562 22152.890625 10823.28125 C 22363.398438 11072.109375 22525.703125 11396.210938 22753.398438 11623.984375 " transform="matrix(0.1, 0, 0, -0.1, 0, 1500)"/>
<path fill-rule="evenodd" fill="rgb(34.104919%, 58.789062%, 60.351562%)" fill-opacity="1" d="M 2269.578125 341.710938 C 2249.160156 313.660156 2267.429688 220.828125 2294.109375 207.488281 C 2301.050781 204.019531 2314.328125 224.28125 2315.378906 223.761719 C 2321.859375 220.519531 2329.609375 199.78125 2334.140625 193.730469 C 2347.191406 176.339844 2374.71875 178.699219 2390.441406 169.960938 C 2423.25 151.730469 2460.160156 135.460938 2495.53125 123.671875 C 2496.96875 123.191406 2499.03125 124.410156 2499.28125 124.921875 C 2501.828125 130.011719 2498.910156 140.941406 2498.03125 146.191406 C 2485.578125 220.941406 2433.980469 273.621094 2369.171875 310.078125 C 2350.699219 320.46875 2329.261719 329.640625 2309.121094 336.351562 C 2294.410156 341.261719 2268.421875 341.710938 2269.578125 341.710938 "/>
<path fill-rule="evenodd" fill="rgb(23.901367%, 32.493591%, 33.300781%)" fill-opacity="1" d="M 2167.808594 468.671875 C 2180.859375 448.640625 2260.878906 398.550781 2284.101562 410.160156 C 2291.339844 413.789062 2264.71875 436.441406 2266.589844 436.441406 C 2276.039062 436.441406 2330.210938 411.550781 2332.941406 414.289062 C 2339.25 420.601562 2302.699219 445.191406 2311.628906 445.191406 C 2325.949219 445.191406 2372.589844 431.699219 2390.820312 432.421875 C 2423.511719 433.710938 2379.058594 457.558594 2382.789062 458.46875 C 2437.179688 471.699219 2450.78125 485.289062 2485.519531 535.269531 C 2487.371094 537.925781 2489.808594 546.710938 2488.019531 550.285156 C 2485.640625 555.042969 2423.171875 530.605469 2407.011719 533.632812 C 2393.410156 536.183594 2427.261719 563.566406 2407.011719 560.359375 C 2371.789062 554.78125 2340.039062 525.035156 2340.039062 522.765625 C 2340.039062 513.914062 2346.199219 571.828125 2323.261719 560.359375 C 2300.730469 549.089844 2272.511719 548.738281 2248.339844 532.121094 C 2239.199219 525.839844 2167.808594 481.539062 2167.808594 468.671875 "/>
<path fill-rule="evenodd" fill="rgb(23.901367%, 32.493591%, 33.300781%)" fill-opacity="1" d="M 2048.929688 561.867188 C 2069.578125 567.210938 2097.859375 516.722656 2098.949219 514.003906 C 2106.421875 495.320312 2114.351562 458.410156 2110.359375 438.460938 C 2108.488281 429.121094 2083.070312 454.46875 2079.148438 450.550781 C 2075.339844 446.738281 2098.789062 409.761719 2080.660156 393.140625 C 2075.511719 388.421875 2050.761719 418.480469 2053.46875 408.441406 C 2059.511719 385.980469 2025.671875 348.558594 2012.679688 364.441406 C 1999.078125 381.050781 1998.960938 415.339844 1997.570312 418.820312 C 1991.261719 434.601562 1980.949219 409.761719 1968.871094 408.289062 C 1959.199219 407.109375 1962.820312 427.890625 1971.890625 442.988281 C 1972.570312 444.121094 1985.410156 463.289062 1981.351562 462.710938 C 1973.878906 461.640625 1951.269531 463.71875 1953.820312 476.46875 C 1965.441406 534.578125 2024.738281 555.613281 2048.929688 561.867188 "/>
<path fill-rule="evenodd" fill="rgb(34.104919%, 58.789062%, 60.351562%)" fill-opacity="1" d="M 1958.859375 633.300781 C 2063.921875 594.78125 2101.96875 591.199219 2167.75 681.644531 C 2174.871094 691.433594 2175.710938 704.765625 2182.769531 714.171875 C 2184.699219 716.746094 2197.78125 724.941406 2197.78125 726.683594 C 2197.78125 744.925781 2159.140625 718.34375 2137.730469 706.664062 C 2135.589844 705.5 2133.699219 703.898438 2131.46875 702.914062 C 2093.738281 686.144531 2051.78125 689.933594 2013.871094 674.136719 C 2006.550781 671.085938 1948 633.300781 1958.859375 633.300781 "/>
<path fill="none" stroke-width="94.42" stroke-linecap="round" stroke-linejoin="round" stroke="rgb(0%, 0%, 0%)" stroke-opacity="1" stroke-miterlimit="10" d="M 22712.617188 11632.8125 C 22694.101562 11666.992188 22756.992188 11753.398438 22771.484375 11782.382812 C 22844.6875 11928.789062 22954.492188 12093.203125 23075.507812 12204.804688 C 23197.109375 12317.109375 23324.609375 12428.515625 23466.992188 12513.90625 C 23621.484375 12606.601562 23803.28125 12660.585938 23951.289062 12766.40625 C 24239.492188 12972.1875 24515 13191.015625 24765.195312 13441.210938 " transform="matrix(0.1, 0, 0, -0.1, 0, 1500)"/>
<path fill="none" stroke-width="94.42" stroke-linecap="round" stroke-linejoin="round" stroke="rgb(0%, 0%, 0%)" stroke-opacity="1" stroke-miterlimit="10" d="M 21801.09375 10298.398438 C 21993.984375 10184.21875 22299.492188 10247.695312 22516.40625 10264.414062 C 22829.492188 10288.515625 23310.390625 10236.40625 23615.195312 10153.28125 C 23698.710938 10130.507812 23768.984375 10081.40625 23849.804688 10054.492188 C 23932.109375 10027.109375 24045.117188 10013.59375 24109.101562 9949.53125 " transform="matrix(0.1, 0, 0, -0.1, 0, 1500)"/>
<path fill="none" stroke-width="94.42" stroke-linecap="round" stroke-linejoin="round" stroke="rgb(0%, 0%, 0%)" stroke-opacity="1" stroke-miterlimit="10" d="M 20252.382812 11169.296875 C 20273.085938 11095.390625 20332.695312 11037.695312 20349.492188 10961.992188 C 20405.117188 10711.796875 20417.382812 10432.890625 20417.382812 10177.890625 C 20417.382812 10055 20421.796875 9821.054688 20534.6875 9745.820312 " transform="matrix(0.1, 0, 0, -0.1, 0, 1500)"/>
<path fill="none" stroke-width="94.42" stroke-linecap="round" stroke-linejoin="round" stroke="rgb(0%, 0%, 0%)" stroke-opacity="1" stroke-miterlimit="10" d="M 19806.289062 8605.46875 C 20091.210938 8634.0625 20471.09375 8585.625 20737.890625 8490.3125 C 20847.1875 8451.289062 21002.695312 8403.554688 21099.414062 8339.140625 C 21138.984375 8312.734375 21167.695312 8220.859375 21217.617188 8220.859375 " transform="matrix(0.1, 0, 0, -0.1, 0, 1500)"/>
<path fill="none" stroke-width="80.33" stroke-linecap="round" stroke-linejoin="round" stroke="rgb(0%, 0%, 0%)" stroke-opacity="1" stroke-miterlimit="10" d="M 38047.617188 1301.640625 C 37993.710938 1288.007812 38127.5 1760.234375 38127.5 1857.148438 C 38127.5 2224.414062 38011.796875 2779.414062 37874.296875 3123.203125 C 37627.304688 3740.742188 36238.203125 5243.4375 36238.203125 5830.585938 " transform="matrix(0.1, 0, 0, -0.1, 0, 1500)"/>
<path fill-rule="evenodd" fill="rgb(23.901367%, 32.493591%, 33.300781%)" fill-opacity="1" d="M 3624 916.941406 C 3619.691406 919.445312 3607.730469 919.179688 3598.5 905.253906 C 3578.921875 875.738281 3558.921875 719.3125 3631.609375 733.851562 C 3685.289062 744.585938 3624 920.46875 3624 916.941406 "/>
<path fill-rule="evenodd" fill="rgb(23.901367%, 32.493591%, 33.300781%)" fill-opacity="1" d="M 3710.78125 1061.835938 C 3688.980469 1064.945312 3679.839844 917.683594 3729 942.261719 C 3782.828125 969.179688 3723.398438 1045.128906 3710.78125 1061.835938 "/>
<path fill-rule="evenodd" fill="rgb(23.901367%, 32.493591%, 33.300781%)" fill-opacity="1" d="M 3726.851562 1094.929688 C 3726 1080.9375 3693.820312 1059.699219 3684.199219 1053.285156 C 3666.78125 1041.675781 3639.171875 1016.617188 3617.96875 1012.382812 C 3614.308594 1011.648438 3604.171875 1012.199219 3600.441406 1014.328125 C 3591.699219 1019.324219 3586.808594 1030.191406 3586.808594 1039.648438 C 3586.808594 1101.414062 3681.789062 1094.929688 3726.851562 1094.929688 "/>
<path fill-rule="evenodd" fill="rgb(23.901367%, 32.493591%, 33.300781%)" fill-opacity="1" d="M 3790.101562 1182.425781 C 3776.089844 1158.226562 3806.609375 1060.953125 3845.859375 1076.65625 C 3897.050781 1097.132812 3810.941406 1203.265625 3790.101562 1182.425781 "/>
<path fill-rule="evenodd" fill="rgb(23.901367%, 32.493591%, 33.300781%)" fill-opacity="1" d="M 3805.648438 1269.449219 C 3799.980469 1252.058594 3762.390625 1204.652344 3748.480469 1193.523438 C 3691.039062 1147.574219 3699.558594 1245.570312 3771.851562 1263.644531 C 3786.839844 1267.390625 3790.75 1269.449219 3805.648438 1269.449219 "/>
<path fill-rule="evenodd" fill="rgb(100%, 76.171875%, 86.326599%)" fill-opacity="1" d="M 3374.558594 1310.667969 C 3357.828125 1306.722656 3341.441406 1288.355469 3326.449219 1294.339844 C 3315.511719 1298.703125 3319.890625 1326.976562 3312.328125 1331.5 C 3260.648438 1362.417969 3269.570312 1292.730469 3244.578125 1297.71875 C 3199.820312 1306.644531 3214.519531 1338.5 3195.171875 1350.078125 C 3183.070312 1357.320312 3150.28125 1346.25 3138.710938 1341.632812 C 3126.179688 1336.636719 3113.789062 1356.171875 3100.601562 1346.699219 C 3089.570312 1338.785156 3087.878906 1321.074219 3090.820312 1307.085938 C 3090.839844 1304.476562 3091.871094 1301.535156 3093.328125 1298.335938 L 3093.539062 1297.71875 L 3093.46875 1298.015625 L 3093.328125 1298.335938 L 3091.578125 1303.496094 L 3090.820312 1307.085938 L 3090.910156 1308.859375 L 3093.46875 1298.015625 C 3099.25 1285.789062 3111.320312 1270.003906 3099.191406 1255.488281 C 3069.621094 1220.105469 3005.75 1223.988281 3013.078125 1162.585938 C 3018.710938 1115.449219 3054.988281 1137.664062 3062.480469 1101.777344 C 3065.621094 1086.761719 3045.289062 1082.4375 3049.78125 1066.308594 C 3055.359375 1046.277344 3081.359375 1057.664062 3082.25 1054.484375 C 3091.941406 1019.667969 3066.839844 980.019531 3096.359375 944.691406 C 3141.929688 890.164062 3178.601562 940.601562 3185.289062 937.933594 C 3200.070312 932.039062 3205.160156 911.949219 3223.398438 909.21875 C 3230.371094 908.179688 3359.539062 953.484375 3365.96875 959.894531 C 3400.78125 994.609375 3363.359375 1036.421875 3373.03125 1059.550781 C 3379.328125 1074.640625 3395.621094 1066.3125 3402.671875 1074.753906 C 3415.570312 1090.191406 3400.621094 1130.335938 3394.199219 1145.695312 C 3391.339844 1152.535156 3409.308594 1164.445312 3411.140625 1171.03125 C 3414.058594 1181.507812 3415.730469 1199.382812 3415.730469 1218.773438 C 3402.089844 1249.53125 3388.359375 1280.230469 3374.558594 1310.667969 "/>
<path fill="none" stroke-width="105.99" stroke-linecap="round" stroke-linejoin="round" stroke="rgb(100%, 100%, 100%)" stroke-opacity="1" stroke-miterlimit="10" d="M 32555.78125 4037.851562 C 32543.28125 4103.203125 32594.296875 4194.414062 32618.789062 4248.867188 C 32709.6875 4450.859375 32827.109375 4592.734375 32973.984375 4739.296875 " transform="matrix(0.1, 0, 0, -0.1, 0, 1500)"/>
<path fill="none" stroke-width="105.99" stroke-linecap="round" stroke-linejoin="round" stroke="rgb(100%, 100%, 100%)" stroke-opacity="1" stroke-miterlimit="10" d="M 32691.601562 3633.398438 C 32717.109375 3601.953125 32786.40625 3614.296875 32819.21875 3605.898438 C 32976.015625 3565.664062 33126.015625 3529.960938 33279.101562 3600.429688 " transform="matrix(0.1, 0, 0, -0.1, 0, 1500)"/>
<path fill="none" stroke-width="105.99" stroke-linecap="round" stroke-linejoin="round" stroke="rgb(100%, 100%, 100%)" stroke-opacity="1" stroke-miterlimit="10" d="M 32421.015625 3255.546875 C 32404.21875 3266.015625 32435.898438 3213.59375 32441.210938 3191.757812 C 32456.71875 3128.828125 32465.78125 3066.640625 32468.515625 3001.054688 C 32476.210938 2817.617188 32441.210938 2637.773438 32441.210938 2456.132812 " transform="matrix(0.1, 0, 0, -0.1, 0, 1500)"/>
<path fill="none" stroke-width="105.99" stroke-linecap="round" stroke-linejoin="round" stroke="rgb(100%, 100%, 100%)" stroke-opacity="1" stroke-miterlimit="10" d="M 32076.484375 3266.328125 C 31937.617188 3119.6875 31814.414062 2985.664062 31639.804688 2881.171875 C 31583.398438 2847.460938 31522.5 2793.984375 31457.617188 2793.984375 " transform="matrix(0.1, 0, 0, -0.1, 0, 1500)"/>
<path fill="none" stroke-width="105.99" stroke-linecap="round" stroke-linejoin="round" stroke="rgb(100%, 100%, 100%)" stroke-opacity="1" stroke-miterlimit="10" d="M 31937.109375 3655.625 C 31891.289062 3692.5 31805.898438 3669.375 31753.59375 3676.71875 C 31608.789062 3697.109375 31373.085938 3805.390625 31261.796875 3921.914062 " transform="matrix(0.1, 0, 0, -0.1, 0, 1500)"/>
<path fill="none" stroke-width="105.99" stroke-linecap="round" stroke-linejoin="round" stroke="rgb(100%, 100%, 100%)" stroke-opacity="1" stroke-miterlimit="10" d="M 32104.882812 4041.40625 C 32066.71875 4075.351562 32057.1875 4140.390625 32031.40625 4188.945312 C 31965.195312 4313.359375 31875.390625 4425.273438 31881.09375 4581.289062 " transform="matrix(0.1, 0, 0, -0.1, 0, 1500)"/>
<path fill-rule="evenodd" fill="rgb(100%, 100%, 100%)" fill-opacity="1" d="M 3235.429688 997.015625 C 3215.75 983.09375 3229.550781 944.210938 3250.5 955.777344 C 3274.808594 969.203125 3257.511719 1010.226562 3235.429688 997.015625 "/>
<path fill="none" stroke-width="105.99" stroke-linecap="round" stroke-linejoin="round" stroke="rgb(100%, 100%, 100%)" stroke-opacity="1" stroke-miterlimit="10" d="M 32354.296875 5029.84375 C 32157.5 5169.0625 32295.507812 5557.890625 32505 5442.226562 C 32748.085938 5307.96875 32575.117188 4897.734375 32354.296875 5029.84375 Z M 32354.296875 5029.84375 " transform="matrix(0.1, 0, 0, -0.1, 0, 1500)"/>
<path fill-rule="evenodd" fill="rgb(100%, 100%, 100%)" fill-opacity="1" d="M 3333.371094 1231.5 C 3328.269531 1230.417969 3326.21875 1229.707031 3323.808594 1222.78125 C 3318.699219 1208.09375 3339.398438 1182.941406 3351.859375 1191.464844 C 3372.300781 1205.441406 3353.101562 1249.964844 3333.371094 1231.5 "/>
<path fill="none" stroke-width="105.99" stroke-linecap="round" stroke-linejoin="round" stroke="rgb(100%, 100%, 100%)" stroke-opacity="1" stroke-miterlimit="10" d="M 33333.710938 2685 C 33282.695312 2695.820312 33262.1875 2702.929688 33238.085938 2772.1875 C 33186.992188 2919.0625 33393.984375 3170.585938 33518.59375 3085.351562 C 33723.007812 2945.585938 33531.015625 2500.351562 33333.710938 2685 Z M 33333.710938 2685 " transform="matrix(0.1, 0, 0, -0.1, 0, 1500)"/>
<path fill-rule="evenodd" fill="rgb(100%, 100%, 100%)" fill-opacity="1" d="M 3123.449219 1055.496094 C 3115.421875 1045.378906 3114.230469 1033.4375 3121.171875 1021.710938 C 3126.78125 1012.25 3142.859375 1005.160156 3150.769531 1014.628906 C 3167.199219 1034.289062 3141.679688 1079.566406 3123.449219 1055.496094 "/>
<path fill="none" stroke-width="105.99" stroke-linecap="round" stroke-linejoin="round" stroke="rgb(100%, 100%, 100%)" stroke-opacity="1" stroke-miterlimit="10" d="M 31234.492188 4445.039062 C 31154.21875 4546.210938 31142.304688 4665.625 31211.71875 4782.890625 C 31267.8125 4877.5 31428.59375 4948.398438 31507.695312 4853.710938 C 31671.992188 4657.109375 31416.796875 4204.335938 31234.492188 4445.039062 Z M 31234.492188 4445.039062 " transform="matrix(0.1, 0, 0, -0.1, 0, 1500)"/>
<path fill-rule="evenodd" fill="rgb(100%, 100%, 100%)" fill-opacity="1" d="M 3075.179688 1184.09375 C 3052.839844 1181.792969 3067.898438 1138.007812 3088.839844 1145.949219 C 3102.5 1151.128906 3101.269531 1171.824219 3096.351562 1182.425781 C 3090.828125 1194.300781 3077.871094 1191.425781 3075.179688 1184.09375 "/>
<path fill="none" stroke-width="105.99" stroke-linecap="round" stroke-linejoin="round" stroke="rgb(100%, 100%, 100%)" stroke-opacity="1" stroke-miterlimit="10" d="M 30751.796875 3159.0625 C 30528.398438 3182.070312 30678.984375 3619.921875 30888.398438 3540.507812 C 31025 3488.710938 31012.695312 3281.757812 30963.515625 3175.742188 C 30908.28125 3056.992188 30778.710938 3085.742188 30751.796875 3159.0625 Z M 30751.796875 3159.0625 " transform="matrix(0.1, 0, 0, -0.1, 0, 1500)"/>
<path fill-rule="evenodd" fill="rgb(100%, 100%, 100%)" fill-opacity="1" d="M 3164.890625 1298.523438 C 3139.410156 1281.804688 3167 1248.371094 3188.25 1264.261719 C 3206.890625 1278.207031 3174.210938 1320.269531 3164.890625 1298.523438 "/>
<path fill="none" stroke-width="105.99" stroke-linecap="round" stroke-linejoin="round" stroke="rgb(100%, 100%, 100%)" stroke-opacity="1" stroke-miterlimit="10" d="M 31648.90625 2014.765625 C 31394.101562 2181.953125 31670 2516.289062 31882.5 2357.382812 C 32068.90625 2217.929688 31742.109375 1797.304688 31648.90625 2014.765625 Z M 31648.90625 2014.765625 " transform="matrix(0.1, 0, 0, -0.1, 0, 1500)"/>
<path fill-rule="evenodd" fill="rgb(100%, 100%, 100%)" fill-opacity="1" d="M 3315.78125 1087.636719 C 3288.878906 1076.511719 3319.289062 1038.675781 3329.660156 1046.949219 C 3346.128906 1060.09375 3353.25 1079.691406 3333.128906 1093.449219 C 3326.160156 1098.210938 3316.488281 1099.195312 3315.78125 1087.636719 "/>
<path fill="none" stroke-width="105.99" stroke-linecap="round" stroke-linejoin="round" stroke="rgb(100%, 100%, 100%)" stroke-opacity="1" stroke-miterlimit="10" d="M 33157.8125 4123.632812 C 32888.789062 4234.882812 33192.890625 4613.242188 33296.601562 4530.507812 C 33461.289062 4399.0625 33532.5 4203.085938 33331.289062 4065.507812 C 33261.601562 4017.890625 33164.882812 4008.046875 33157.8125 4123.632812 Z M 33157.8125 4123.632812 " transform="matrix(0.1, 0, 0, -0.1, 0, 1500)"/>
<path fill-rule="evenodd" fill="rgb(100%, 100%, 100%)" fill-opacity="1" d="M 3202.179688 1153.035156 C 3173.25 1118.359375 3236.070312 1059.574219 3261.621094 1105.421875 C 3285.820312 1148.867188 3223.609375 1204.328125 3202.179688 1153.035156 "/>
<path fill="none" stroke-width="105.99" stroke-linecap="round" stroke-linejoin="round" stroke="rgb(100%, 100%, 100%)" stroke-opacity="1" stroke-miterlimit="10" d="M 32021.796875 3469.648438 C 31732.5 3816.40625 32360.703125 4404.257812 32616.210938 3945.78125 C 32858.203125 3511.328125 32236.09375 2956.71875 32021.796875 3469.648438 Z M 32021.796875 3469.648438 " transform="matrix(0.1, 0, 0, -0.1, 0, 1500)"/>
<path fill-rule="evenodd" fill="rgb(100%, 80.859375%, 73.631287%)" fill-opacity="1" d="M 2078.089844 989.257812 C 2075.949219 993.535156 2014.019531 964.175781 2003.28125 965.519531 C 1973.101562 969.289062 1967 993.789062 1948.730469 1002.925781 C 1909.851562 1022.367188 1881.101562 990.679688 1848.96875 1035.660156 C 1819.640625 1076.722656 1813.910156 1125.296875 1850.53125 1161.914062 C 1859.269531 1170.65625 1875.488281 1169.734375 1883.261719 1177.503906 C 1887.398438 1181.640625 1881.160156 1198.367188 1880.140625 1202.441406 C 1873.210938 1230.167969 1873.371094 1260.589844 1886.378906 1286.613281 C 1905.761719 1325.367188 1939.769531 1313.242188 1972.109375 1324.019531 C 1990.640625 1330.199219 1991.761719 1355.511719 2009.519531 1361.429688 C 2028.859375 1367.878906 2160.46875 1372.941406 2176.300781 1367.664062 C 2240.949219 1346.113281 2196.460938 1266.746094 2198.46875 1260.710938 C 2206.890625 1235.464844 2235.269531 1252.453125 2254.238281 1242.96875 C 2267.398438 1236.386719 2290.648438 1219.664062 2299.441406 1208.675781 C 2314.511719 1189.835938 2285.820312 1175.128906 2291.640625 1163.472656 C 2294.539062 1157.683594 2305.929688 1156.898438 2310.351562 1151.003906 C 2319.320312 1139.046875 2322.328125 1074.957031 2316.578125 1060.601562 C 2303.761719 1028.546875 2256.078125 1047.492188 2235.53125 1037.21875 C 2214.089844 1026.5 2221.351562 998.023438 2209.03125 979.546875 C 2196.429688 960.636719 2163.238281 963.8125 2145.128906 959.28125 C 2128.140625 955.035156 2087.21875 971.007812 2078.089844 989.257812 "/>
<path fill="none" stroke-width="125.4" stroke-linecap="round" stroke-linejoin="round" stroke="rgb(100%, 100%, 100%)" stroke-opacity="1" stroke-miterlimit="10" d="M 21055.585938 3466.953125 C 21246.015625 3364.804688 21685.898438 3537.5 21854.882812 3622.03125 " transform="matrix(0.1, 0, 0, -0.1, 0, 1500)"/>
<path fill="none" stroke-width="125.4" stroke-linecap="round" stroke-linejoin="round" stroke="rgb(100%, 100%, 100%)" stroke-opacity="1" stroke-miterlimit="10" d="M 20901.484375 3770.898438 C 20983.007812 3999.335938 21200.117188 4286.25 21200.117188 4523.554688 " transform="matrix(0.1, 0, 0, -0.1, 0, 1500)"/>
<path fill="none" stroke-width="125.4" stroke-linecap="round" stroke-linejoin="round" stroke="rgb(100%, 100%, 100%)" stroke-opacity="1" stroke-miterlimit="10" d="M 20478.085938 3898.4375 C 20352.109375 4021.5625 20263.398438 4160.507812 20175.195312 4314.765625 C 20158.710938 4343.59375 20083.515625 4523.554688 20051.796875 4523.554688 " transform="matrix(0.1, 0, 0, -0.1, 0, 1500)"/>
<path fill="none" stroke-width="125.4" stroke-linecap="round" stroke-linejoin="round" stroke="rgb(100%, 100%, 100%)" stroke-opacity="1" stroke-miterlimit="10" d="M 20272.304688 3454.375 C 20012.695312 3384.6875 19781.914062 3384.765625 19510.898438 3384.765625 " transform="matrix(0.1, 0, 0, -0.1, 0, 1500)"/>
<path fill="none" stroke-width="125.4" stroke-linecap="round" stroke-linejoin="round" stroke="rgb(100%, 100%, 100%)" stroke-opacity="1" stroke-miterlimit="10" d="M 20384.101562 3105.507812 C 20337.617188 3079.257812 20264.414062 2690.039062 20213.085938 2587.617188 " transform="matrix(0.1, 0, 0, -0.1, 0, 1500)"/>
<path fill="none" stroke-width="125.4" stroke-linecap="round" stroke-linejoin="round" stroke="rgb(100%, 100%, 100%)" stroke-opacity="1" stroke-miterlimit="10" d="M 20792.5 3064.179688 C 20791.71875 3025.507812 21040.585938 2614.296875 21067.1875 2587.617188 " transform="matrix(0.1, 0, 0, -0.1, 0, 1500)"/>
<path fill-rule="evenodd" fill="rgb(98.826599%, 46.702576%, 61.521912%)" fill-opacity="1" d="M 2039.261719 1181.445312 C 2015.410156 1155.414062 2042.371094 1094.234375 2074.460938 1110.277344 C 2102.671875 1124.382812 2112.839844 1160.019531 2086.789062 1179.554688 C 2081.960938 1183.179688 2042.988281 1188.894531 2039.261719 1181.445312 "/>
<path fill="none" stroke-width="125.4" stroke-linecap="round" stroke-linejoin="round" stroke="rgb(98.826599%, 46.702576%, 61.521912%)" stroke-opacity="1" stroke-miterlimit="10" d="M 20392.617188 3185.546875 C 20154.101562 3445.859375 20423.710938 4057.65625 20744.609375 3897.226562 C 21026.71875 3756.171875 21128.398438 3399.804688 20867.890625 3204.453125 C 20819.609375 3168.203125 20429.882812 3111.054688 20392.617188 3185.546875 Z M 20392.617188 3185.546875 " transform="matrix(0.1, 0, 0, -0.1, 0, 1500)"/>
<path fill="none" stroke-width="90.45" stroke-linecap="round" stroke-linejoin="round" stroke="rgb(0%, 0%, 0%)" stroke-opacity="1" stroke-miterlimit="10" d="M 27131.289062 2910.703125 C 27290.507812 3011.992188 27461.71875 3210.429688 27579.882812 3315.898438 C 27827.304688 3536.71875 28061.992188 3731.992188 28212.5 4032.890625 C 28245.3125 4098.632812 28372.382812 4225.976562 28372.382812 4288.75 " transform="matrix(0.1, 0, 0, -0.1, 0, 1500)"/>
<path fill="none" stroke-width="90.45" stroke-linecap="round" stroke-linejoin="round" stroke="rgb(0%, 0%, 0%)" stroke-opacity="1" stroke-miterlimit="10" d="M 27348.984375 3663.203125 C 27623.28125 3952.65625 27702.382812 4324.492188 27676.71875 4632.578125 C 27666.210938 4758.203125 27620.703125 4863.515625 27620.703125 4992.421875 " transform="matrix(0.1, 0, 0, -0.1, 0, 1500)"/>
<path fill="none" stroke-width="90.45" stroke-linecap="round" stroke-linejoin="round" stroke="rgb(0%, 0%, 0%)" stroke-opacity="1" stroke-miterlimit="10" d="M 26045.898438 3177.890625 C 25894.882812 3750.039062 25795.703125 4784.492188 26101.484375 4784.492188 " transform="matrix(0.1, 0, 0, -0.1, 0, 1500)"/>
<path fill="none" stroke-width="90.45" stroke-linecap="round" stroke-linejoin="round" stroke="rgb(0%, 0%, 0%)" stroke-opacity="1" stroke-miterlimit="10" d="M 24411.914062 4240 C 24842.109375 4252.617188 25150.117188 4073.710938 25424.414062 3760.273438 C 25476.71875 3700.429688 25643.789062 3250.429688 25684.101562 3177.890625 " transform="matrix(0.1, 0, 0, -0.1, 0, 1500)"/>
<path fill-rule="evenodd" fill="rgb(98.826599%, 46.702576%, 61.521912%)" fill-opacity="1" d="M 2840.441406 1083.117188 C 2807.050781 1084.476562 2828.789062 1030.535156 2861.230469 1035.941406 C 2874.050781 1038.078125 2876.140625 1063.546875 2870.019531 1072.722656 C 2863.160156 1083.019531 2851.46875 1083.117188 2840.441406 1083.117188 "/>
<path fill-rule="evenodd" fill="rgb(98.826599%, 46.702576%, 61.521912%)" fill-opacity="1" d="M 2763.671875 1007.15625 C 2751.421875 1010.691406 2750.300781 1011.03125 2737.289062 1002.359375 C 2718.050781 989.535156 2740.679688 962.640625 2755.679688 959.179688 C 2783.601562 952.734375 2792.539062 1001.382812 2763.671875 1007.15625 "/>
<path fill-rule="evenodd" fill="rgb(98.826599%, 46.702576%, 61.521912%)" fill-opacity="1" d="M 2620.269531 1028.035156 C 2585.730469 1027.652344 2605.53125 977.171875 2632.539062 973.570312 C 2662.339844 969.597656 2649.558594 1028.035156 2620.269531 1028.035156 "/>
<path fill-rule="evenodd" fill="rgb(98.826599%, 46.702576%, 61.521912%)" fill-opacity="1" d="M 2442.230469 1101.511719 C 2431.300781 1102.378906 2425.238281 1097.320312 2416.640625 1088.714844 C 2404.199219 1076.273438 2425.558594 1051.933594 2439.828125 1051.933594 C 2468.78125 1051.933594 2484.480469 1098.15625 2442.230469 1101.511719 "/>
<path fill-rule="evenodd" fill="rgb(100%, 76.171875%, 86.326599%)" fill-opacity="1" d="M 2632.96875 1302.992188 C 2618.058594 1295.199219 2590.121094 1208.4375 2590.121094 1191.78125 C 2590.121094 1135.375 2619.539062 1080.292969 2679.808594 1073.597656 C 2692.320312 1072.203125 2699.640625 1079.324219 2710.929688 1081.375 C 2722.300781 1083.445312 2736.660156 1086.230469 2746.488281 1093.601562 C 2762.101562 1105.308594 2746.109375 1138.90625 2744.269531 1153.621094 C 2742.929688 1164.371094 2746.390625 1176.34375 2744.269531 1186.964844 C 2740.410156 1206.25 2713.160156 1228.960938 2700.921875 1243.648438 C 2695.761719 1249.839844 2690.378906 1260.046875 2684.628906 1270.671875 C 2670.429688 1296.882812 2653.96875 1325.648438 2632.96875 1302.992188 "/>
<path fill-rule="evenodd" fill="rgb(98.826599%, 46.702576%, 61.521912%)" fill-opacity="1" d="M 2669.710938 1312.5 C 2675.910156 1296.78125 2700.460938 1251.828125 2740.421875 1219.324219 C 2777.519531 1189.144531 2823.789062 1184.378906 2839.308594 1181.554688 C 2850.960938 1179.4375 2919.578125 1203.886719 2927.121094 1212.675781 C 2956.769531 1247.269531 2911.191406 1301.734375 2875.988281 1307.152344 C 2857.179688 1310.046875 2838.921875 1306.460938 2820.421875 1303.816406 C 2770.738281 1296.71875 2714.109375 1290.304688 2669.710938 1312.5 "/>
<path fill-rule="evenodd" fill="rgb(98.826599%, 46.702576%, 61.521912%)" fill-opacity="1" d="M 2574.679688 1174.902344 C 2513.460938 1110.457031 2408.058594 1214.859375 2441.191406 1281.132812 C 2450.820312 1300.382812 2638.738281 1334.519531 2630.640625 1318.015625 C 2623.410156 1303.265625 2599.089844 1276.050781 2591.789062 1254.164062 C 2585.121094 1234.152344 2586.199219 1197.886719 2574.679688 1174.902344 "/>
<path fill="none" stroke-width="47.41" stroke-linecap="round" stroke-linejoin="round" stroke="rgb(0%, 0%, 0%)" stroke-opacity="1" stroke-miterlimit="10" d="M 2866.25 811.40625 C 2744.726562 885.976562 2712.851562 1725.039062 2712.851562 1884.0625 C 2712.851562 2861.484375 3205.976562 3834.140625 3765.859375 4607.34375 C 3940.3125 4848.242188 4174.765625 5043.671875 4337.734375 5288.164062 " transform="matrix(0.1, 0, 0, -0.1, 0, 1500)"/>
<path fill-rule="evenodd" fill="rgb(34.910583%, 48.608398%, 60.351562%)" fill-opacity="1" d="M 433.773438 971.183594 C 432.417969 972 450.542969 890.328125 467.605469 863.519531 C 494.042969 821.972656 564.4375 791.382812 563.066406 856.675781 C 562.238281 896.109375 512.128906 924.296875 478.253906 947.585938 C 461.972656 958.777344 450.589844 961.097656 433.773438 971.183594 "/>
<path fill-rule="evenodd" fill="rgb(56.443787%, 60.742188%, 64.256287%)" fill-opacity="1" d="M 354.777344 1074.714844 C 331.769531 1080.464844 471.328125 973.460938 542.636719 994.34375 C 551.542969 996.949219 557.53125 1013.292969 556.09375 1022.644531 C 550.695312 1057.726562 531.988281 1054.464844 506.394531 1065.59375 C 481.179688 1076.554688 381.3125 1068.078125 354.777344 1074.714844 "/>
<path fill-rule="evenodd" fill="rgb(56.443787%, 60.742188%, 64.256287%)" fill-opacity="1" d="M 336.113281 1098.691406 C 356.28125 1041.292969 361.816406 1004.121094 336.113281 945.367188 C 330.296875 932.074219 318.574219 914.453125 306.527344 905.851562 C 284.242188 889.933594 250.128906 901.535156 242.8125 930.8125 C 232.171875 973.367188 269.019531 1006.335938 294.375 1039.300781 C 307.023438 1055.742188 336.113281 1076.214844 336.113281 1098.691406 "/>
<path fill-rule="evenodd" fill="rgb(34.910583%, 48.608398%, 60.351562%)" fill-opacity="1" d="M 322.121094 1222.632812 C 309.699219 1224.410156 285.808594 1228.277344 285.808594 1227.171875 C 285.808594 1206.644531 321.703125 1175.792969 335.738281 1163.628906 C 381.117188 1124.300781 415.398438 1111.21875 474.625 1108.257812 C 493.0625 1107.335938 512.898438 1106.691406 523.644531 1124.597656 C 536.75 1146.441406 502.890625 1183.085938 485.515625 1191.769531 C 428.472656 1220.292969 383.425781 1213.875 322.121094 1222.632812 "/>
<path fill-rule="evenodd" fill="rgb(34.910583%, 48.608398%, 60.351562%)" fill-opacity="1" d="M 190.886719 1142.429688 C 233.851562 1175.847656 283.085938 1227.785156 283.085938 1225.273438 C 283.085938 1205.339844 277.488281 1192.644531 275.824219 1172.707031 C 271.027344 1115.148438 242.8125 1062.1875 198.8125 1040.882812 C 187.914062 1035.605469 165.105469 1029.394531 154.1875 1035.636719 C 112.445312 1059.488281 161.976562 1119.945312 190.886719 1142.429688 "/>
<path fill="none" stroke-width="47.41" stroke-linecap="round" stroke-linejoin="round" stroke="rgb(0%, 0%, 0%)" stroke-opacity="1" stroke-miterlimit="10" d="M 4078.789062 4757.773438 C 4088.867188 4797.539062 4411.40625 4969.453125 4470.3125 5010.703125 C 4758.789062 5212.617188 5229.609375 5379.453125 5565.351562 5178.007812 C 5910.117188 4971.171875 5805.390625 4581.132812 5529.882812 4366.835938 C 5429.335938 4288.632812 5244.648438 4264.179688 5124.296875 4240.117188 C 4914.53125 4198.164062 4729.0625 4235.039062 4521.015625 4235.039062 " transform="matrix(0.1, 0, 0, -0.1, 0, 1500)"/>
<path fill="none" stroke-width="47.41" stroke-linecap="round" stroke-linejoin="round" stroke="rgb(0%, 0%, 0%)" stroke-opacity="1" stroke-miterlimit="10" d="M 2847.070312 6019.6875 C 2784.492188 6056.796875 2660.546875 6010.46875 2596.953125 5996.328125 C 2270.3125 5923.75 2149.765625 5470.703125 2277.8125 5182.578125 C 2452.890625 4788.671875 2758.789062 4706.914062 3033.085938 4432.65625 C 3105.390625 4360.3125 3283.046875 4220.976562 3283.046875 4108.203125 " transform="matrix(0.1, 0, 0, -0.1, 0, 1500)"/>
<path fill="none" stroke-width="79.11" stroke-linecap="round" stroke-linejoin="round" stroke="rgb(0%, 0%, 0%)" stroke-opacity="1" stroke-miterlimit="10" d="M 13811.484375 7671.015625 C 14393.789062 7683.671875 15119.101562 8273.710938 15411.210938 8614.414062 C 16188.789062 9521.679688 16627.304688 11032.109375 16627.304688 12219.804688 " transform="matrix(0.1, 0, 0, -0.1, 0, 1500)"/>
<path fill-rule="evenodd" fill="rgb(100%, 48.608398%, 60.742188%)" fill-opacity="1" d="M 1666.660156 286.238281 C 1661.21875 285.730469 1650.851562 239.191406 1647.671875 232.820312 C 1638.300781 214.089844 1612.480469 198.429688 1589.550781 195.148438 C 1565.390625 191.699219 1510.261719 197.480469 1488.738281 213.941406 C 1469.921875 228.328125 1460.578125 265.199219 1486.210938 278.019531 C 1531.289062 300.558594 1545.148438 239.21875 1572.328125 244.660156 C 1580.390625 246.269531 1595.800781 246.121094 1602.460938 251.121094 C 1623.761719 267.089844 1637.089844 286.238281 1666.660156 286.238281 "/>
<path fill-rule="evenodd" fill="rgb(80.859375%, 36.497498%, 47.509766%)" fill-opacity="1" d="M 1666.050781 287.21875 C 1650.761719 284.820312 1663.660156 238.351562 1670.269531 231.738281 C 1678.128906 223.878906 1690.660156 211.628906 1701.480469 206.988281 C 1717.738281 200.019531 1817.550781 192.808594 1829.550781 197.308594 C 1837.929688 200.449219 1844.398438 208.648438 1847.839844 216.679688 C 1854.410156 231.988281 1845.910156 242.679688 1837.078125 253.269531 C 1793.070312 306.078125 1761.941406 265.441406 1716.539062 270.488281 C 1699.511719 272.378906 1677.46875 289.011719 1666.050781 287.21875 "/>
<path fill-rule="evenodd" fill="rgb(100%, 48.608398%, 60.742188%)" fill-opacity="1" d="M 1780.039062 195.148438 C 1686.199219 205.078125 1658.878906 279.78125 1658.878906 278.019531 C 1658.878906 264.601562 1658.921875 207.96875 1665.960938 196.230469 C 1672.871094 184.710938 1683.160156 166.75 1695.019531 159.640625 C 1714.480469 147.960938 1792.929688 143.441406 1805.871094 165.019531 C 1815.460938 181.011719 1793.191406 193.761719 1780.039062 195.148438 "/>
<path fill-rule="evenodd" fill="rgb(80.859375%, 36.497498%, 47.509766%)" fill-opacity="1" d="M 1657.261719 263.378906 C 1658.179688 238.261719 1677.890625 173.71875 1657.351562 153.179688 C 1620.761719 116.578125 1494.519531 130.78125 1480.851562 185.46875 C 1477.820312 197.570312 1501.011719 204.378906 1508.828125 206.988281 C 1536.621094 216.25 1569.5 216.691406 1598.160156 225.289062 C 1612.660156 229.640625 1649.488281 236.71875 1657.261719 263.378906 "/>
<path fill-rule="evenodd" fill="rgb(100%, 48.608398%, 60.742188%)" fill-opacity="1" d="M 1750.320312 278.019531 C 1749.050781 254.289062 1721.640625 260.769531 1708.988281 244.308594 C 1691.601562 221.71875 1669.960938 217.441406 1643.328125 222.800781 C 1618.710938 227.75 1597.980469 238.578125 1577.03125 251.238281 C 1560.578125 261.171875 1548.011719 253.25 1550.769531 270.699219 C 1552.988281 284.820312 1565.621094 282.03125 1579.550781 284.359375 C 1611.25 289.679688 1649.578125 342.878906 1682.871094 316.859375 C 1714.878906 291.839844 1746.519531 293.78125 1750.320312 278.019531 "/>
<path fill-rule="evenodd" fill="rgb(50%, 50%, 50%)" fill-opacity="1" d="M 1671.960938 467.050781 C 1646.980469 483.710938 1607.339844 530.492188 1608.988281 527.84375 C 1613.851562 520.066406 1630.820312 483.671875 1635.570312 475.949219 C 1645.699219 459.488281 1655.800781 456.429688 1662.730469 446.03125 C 1672.761719 430.980469 1684.730469 421.21875 1701.71875 412.71875 C 1707.390625 409.890625 1732 401.480469 1736.210938 409.890625 C 1742.109375 421.699219 1722.839844 438.851562 1715.421875 446.261719 C 1704.441406 457.25 1685.488281 458.03125 1671.960938 467.050781 "/>
<path fill-rule="evenodd" fill="rgb(50%, 50%, 50%)" fill-opacity="1" d="M 1592.539062 552.472656 C 1589.390625 561.574219 1603.671875 532.335938 1604.398438 527.953125 C 1605.820312 519.394531 1600.871094 504.863281 1596.839844 496.808594 C 1591.738281 486.601562 1582.589844 477.660156 1578.890625 466.578125 C 1575.230469 455.578125 1565.371094 438.308594 1550.550781 442.011719 C 1542.699219 443.980469 1544.199219 455.609375 1545.351562 461.378906 C 1549.410156 481.648438 1574.789062 482.769531 1581.730469 500.121094 C 1586.871094 512.964844 1598.871094 534.175781 1592.539062 552.472656 "/>
<path fill-rule="evenodd" fill="rgb(50%, 50%, 50%)" fill-opacity="1" d="M 1616.449219 507.585938 C 1610.859375 515.792969 1611.890625 464.078125 1604.488281 445.570312 C 1597.070312 427.039062 1584.789062 414.601562 1576.53125 398.078125 C 1574.429688 393.871094 1569.359375 388.609375 1570.390625 383.429688 C 1577.300781 348.898438 1607.121094 383.199219 1614.328125 397.609375 C 1620.25 409.449219 1618.640625 421.648438 1620.46875 434.460938 C 1621.511719 441.789062 1626.710938 492.53125 1616.449219 507.585938 "/>
<path fill-rule="evenodd" fill="rgb(85.15625%, 46.702576%, 61.131287%)" fill-opacity="1" d="M 1449.480469 1268.65625 C 1472.078125 1246.730469 1500.601562 1235.628906 1515.871094 1200.011719 C 1529.46875 1168.269531 1540.859375 1036.148438 1567.648438 1020.839844 C 1609.890625 996.703125 1662.738281 1033.320312 1670.058594 1077.296875 C 1678.261719 1126.457031 1651.730469 1174.910156 1616.230469 1205.972656 C 1581.039062 1236.761719 1491.378906 1237.230469 1449.480469 1268.65625 "/>
<path fill-rule="evenodd" fill="rgb(85.15625%, 46.702576%, 61.131287%)" fill-opacity="1" d="M 1449.480469 1268.65625 C 1470.238281 1234.039062 1511.300781 1188.121094 1502 1141.636719 C 1497.78125 1120.515625 1486.699219 1101.195312 1484.929688 1079.925781 C 1483.289062 1060.296875 1493.640625 1016.828125 1482.308594 999.828125 C 1479.980469 996.339844 1470.558594 994.601562 1466.550781 993.265625 C 1425.171875 979.472656 1413.421875 1066.605469 1416.648438 1095.679688 C 1418.789062 1114.925781 1434.039062 1124.992188 1441.601562 1141.636719 C 1458.769531 1179.402344 1449.480469 1228.480469 1449.480469 1268.65625 "/>
<path fill-rule="evenodd" fill="rgb(38.792419%, 25.901794%, 26.708984%)" fill-opacity="1" d="M 1449.480469 1268.65625 C 1446.398438 1264.929688 1437.578125 1202.472656 1431.101562 1186.277344 C 1423.03125 1166.117188 1369.238281 1132.738281 1351 1103.558594 C 1344.109375 1092.53125 1340.21875 1059.035156 1331.308594 1052.351562 C 1321.269531 1044.820312 1300.449219 1041.628906 1287.980469 1045.785156 C 1268.121094 1052.40625 1254.75 1071.007812 1251.210938 1090.429688 C 1236.039062 1173.914062 1342.621094 1189.386719 1394.328125 1220.414062 C 1402.289062 1225.191406 1449.089844 1268.65625 1449.480469 1268.65625 "/>
<path fill-rule="evenodd" fill="rgb(38.792419%, 25.901794%, 26.708984%)" fill-opacity="1" d="M 1580.78125 1308.386719 C 1525.25 1279.570312 1449.480469 1283.078125 1449.480469 1281.132812 C 1449.480469 1260.265625 1493.75 1234.859375 1509.878906 1234.859375 C 1540.929688 1234.859375 1566.019531 1249.683594 1595.21875 1251.929688 C 1625.460938 1254.253906 1707.199219 1219.40625 1713.390625 1268.996094 C 1716.800781 1296.21875 1663.050781 1311.015625 1643.808594 1311.015625 C 1623.199219 1311.015625 1599.089844 1317.886719 1580.78125 1308.386719 "/>
<path fill-rule="evenodd" fill="rgb(85.15625%, 46.702576%, 61.131287%)" fill-opacity="1" d="M 1449.480469 1282.128906 C 1441.53125 1260.175781 1303.960938 1217.429688 1281.421875 1224.355469 C 1269.828125 1227.914062 1263.628906 1246.578125 1252.53125 1253.242188 C 1234.441406 1264.097656 1186.601562 1259.734375 1193.441406 1293.945312 C 1199.121094 1322.332031 1237.929688 1318.210938 1257.78125 1321.519531 C 1311.378906 1330.449219 1420.519531 1267.648438 1449.480469 1282.128906 "/>
<path fill="none" stroke-width="70" stroke-linecap="round" stroke-linejoin="round" stroke="rgb(0%, 0%, 0%)" stroke-opacity="1" stroke-miterlimit="10" d="M 14841.992188 2694.570312 C 14999.414062 2904.335938 15107.8125 3193.90625 15136.71875 3454.609375 C 15203.007812 4050.585938 15042.109375 4776.796875 15640.78125 5145.273438 C 15790.390625 5237.304688 15901.914062 5300.351562 16082.890625 5300.351562 C 16192.304688 5300.351562 16313.515625 5292.382812 16416.40625 5253.828125 C 17374.6875 4894.453125 17352.8125 3685.273438 16695.585938 3028.046875 C 16462.1875 2794.726562 16015.3125 2754.882812 15706.015625 2693.046875 " transform="matrix(0.1, 0, 0, -0.1, 0, 1500)"/>
<path fill="none" stroke-width="70" stroke-linecap="round" stroke-linejoin="round" stroke="rgb(0%, 0%, 0%)" stroke-opacity="1" stroke-miterlimit="10" d="M 14383.984375 3048.710938 C 14298.59375 3470.9375 14037.617188 3762.304688 13816.40625 4112.304688 C 13676.289062 4334.257812 13663.085938 4372.226562 13604.414062 4611.015625 C 13547.8125 4840.820312 13528.90625 5106.523438 13271.914062 5206.015625 C 13136.210938 5258.554688 12947.617188 5186.875 12825.585938 5145.273438 C 12752.8125 5120.390625 12676.992188 5099.257812 12611.40625 5058.945312 C 12195.117188 4803.28125 12035.703125 4147.695312 12192.1875 3704.648438 C 12392.617188 3137.421875 13532.382812 2986.171875 13970.195312 2693.046875 " transform="matrix(0.1, 0, 0, -0.1, 0, 1500)"/>
</svg>
